<?xml version="1.0" encoding="UTF-8" standalone="no"?>
<!-- Created with Inkscape (http://www.inkscape.org/) -->

<svg
   xmlns:dc="http://purl.org/dc/elements/1.1/"
   xmlns:cc="http://creativecommons.org/ns#"
   xmlns:rdf="http://www.w3.org/1999/02/22-rdf-syntax-ns#"
   xmlns:svg="http://www.w3.org/2000/svg"
   xmlns="http://www.w3.org/2000/svg"
   xmlns:sodipodi="http://sodipodi.sourceforge.net/DTD/sodipodi-0.dtd"
   xmlns:inkscape="http://www.inkscape.org/namespaces/inkscape"
   id="svg4155"
   version="1.1"
   inkscape:version="0.92.5 (2060ec1f9f, 2020-04-08)"
   xml:space="preserve"
   width="482"
   height="286"
   viewBox="0 0 482 286"
   sodipodi:docname="logo_dburger.svg"><metadata
     id="metadata4161"><rdf:RDF><cc:Work
         rdf:about=""><dc:format>image/svg+xml</dc:format><dc:type
           rdf:resource="http://purl.org/dc/dcmitype/StillImage" /><dc:title /></cc:Work></rdf:RDF></metadata><defs
     id="defs4159" /><sodipodi:namedview
     pagecolor="#ffffff"
     bordercolor="#666666"
     borderopacity="1"
     objecttolerance="10"
     gridtolerance="10"
     guidetolerance="10"
     inkscape:pageopacity="0"
     inkscape:pageshadow="2"
     inkscape:window-width="1920"
     inkscape:window-height="1017"
     id="namedview4157"
     showgrid="false"
     inkscape:zoom="1"
     inkscape:cx="321.12539"
     inkscape:cy="131.57435"
     inkscape:window-x="1072"
     inkscape:window-y="-8"
     inkscape:window-maximized="1"
     inkscape:current-layer="g4818"
     inkscape:object-paths="true"
     inkscape:snap-text-baseline="false" /><g
     id="g4163"
     inkscape:groupmode="layer"
     inkscape:label="ink_ext_XXXXXX"
     transform="matrix(1.25,0,0,-1.25,0,286)"><g
       id="g4818"
       transform="matrix(1.9348468,0,0,1.9348468,-869.03135,-730.07198)"><path
         d="m 599.952,449.151 4.111,-10.961 H 494.452 l 4.112,10.961 -4.112,10.96 h 109.611 l -4.111,-10.96"
         style="fill:#e7e8cc;fill-opacity:1;fill-rule:evenodd;stroke:none"
         id="path4535"
         inkscape:connector-curvature="0" /><path
         d="m 464.49381,398.61757 h 13.889 c 1.063,0 1.979,-0.509 2.54,-1.414 l 2.978,-4.814 c 0.097,-0.155 0.177,-0.314 0.244,-0.478 h 11.832 v -2.186 h -11.831 c -0.066,-0.163 -0.148,-0.324 -0.245,-0.481 l -2.978,-4.809 c -0.561,-0.907 -1.477,-1.416 -2.54,-1.416 h -13.889 c -1.645,0 -2.987,1.343 -2.987,2.986 v 9.625 c 0,1.645 1.342,2.987 2.987,2.987 z m 1.9,-2.242 h 9.892 c 0.36,0 0.656,-0.295 0.656,-0.655 v -0.002 c 0,-0.362 -0.296,-0.656 -0.656,-0.656 h -9.892 c -0.36,0 -0.656,0.294 -0.656,0.656 v 0.002 c 0,0.36 0.296,0.655 0.656,0.655 z m -1.573,-2.424 h 13.037 c 0.36,0 0.657,-0.295 0.657,-0.655 v 0 c 0,-0.361 -0.297,-0.657 -0.657,-0.657 h -13.037 c -0.358,0 -0.654,0.296 -0.654,0.657 v 0 c 0,0.36 0.294,0.655 0.654,0.655 z m 0,-4.845 h 13.037 c 0.36,0 0.657,-0.295 0.657,-0.657 0,-0.36 -0.297,-0.655 -0.657,-0.655 h -13.037 c -0.36,0 -0.654,0.295 -0.654,0.655 0,0.362 0.294,0.657 0.654,0.657 z m 0,2.423 h 14.609 c 0.361,0 0.656,-0.297 0.656,-0.657 v 0 c 0,-0.359 -0.295,-0.654 -0.656,-0.654 h -14.609 c -0.358,0 -0.654,0.295 -0.654,0.654 v 0 c 0,0.363 0.294,0.657 0.654,0.657 z m 1.573,-4.845 h 9.892 c 0.36,0 0.656,-0.295 0.656,-0.656 0,-0.36 -0.296,-0.657 -0.656,-0.657 h -9.892 c -0.36,0 -0.656,0.297 -0.656,0.657 0,0.361 0.296,0.656 0.656,0.656"
         style="fill:#e7e8cc;fill-opacity:1;fill-rule:evenodd;stroke:none"
         id="path4539"
         inkscape:connector-curvature="0" /><path
         d="m 634.84813,399.03104 h -13.888 c -1.065,0 -1.979,-0.509 -2.54,-1.414 l -2.979,-4.814 c -0.097,-0.155 -0.177,-0.314 -0.243,-0.478 h -11.831 v -2.186 h 11.83 c 0.066,-0.163 0.147,-0.324 0.244,-0.481 l 2.979,-4.809 c 0.559,-0.907 1.475,-1.416 2.54,-1.416 h 13.888 c 1.645,0 2.987,1.343 2.987,2.986 v 9.625 c 0,1.645 -1.342,2.987 -2.987,2.987 z m -1.901,-2.242 h -9.891 c -0.361,0 -0.656,-0.295 -0.656,-0.655 v -0.002 c 0,-0.362 0.295,-0.656 0.656,-0.656 h 9.891 c 0.361,0 0.656,0.294 0.656,0.656 v 0.002 c 0,0.36 -0.295,0.655 -0.656,0.655 z m 1.572,-2.424 h -13.035 c -0.361,0 -0.656,-0.295 -0.656,-0.655 v 0 c 0,-0.361 0.296,-0.657 0.656,-0.657 h 13.035 c 0.362,0 0.657,0.296 0.657,0.657 v 0 c 0,0.36 -0.294,0.655 -0.657,0.655 z m 0,-4.845 h -13.035 c -0.361,0 -0.656,-0.295 -0.656,-0.657 0,-0.36 0.296,-0.655 0.656,-0.655 h 13.035 c 0.363,0 0.657,0.295 0.657,0.655 0,0.362 -0.294,0.657 -0.657,0.657 z m 0,2.423 h -14.606 c -0.362,0 -0.656,-0.297 -0.656,-0.657 v 0 c 0,-0.359 0.296,-0.654 0.656,-0.654 h 14.606 c 0.362,0 0.657,0.295 0.657,0.654 v 0 c 0,0.363 -0.294,0.657 -0.657,0.657 z m -1.572,-4.845 h -9.891 c -0.361,0 -0.656,-0.295 -0.656,-0.656 0,-0.36 0.295,-0.657 0.656,-0.657 h 9.891 c 0.361,0 0.656,0.297 0.656,0.657 0,0.361 -0.295,0.656 -0.656,0.656"
         style="fill:#e7e8cc;fill-opacity:1;fill-rule:evenodd;stroke:none"
         id="path4541"
         inkscape:connector-curvature="0" /><path
         d="m 465.554,467.825 c 1.508,0 2.731,-1.222 2.731,-2.73 0,-1.509 -1.223,-2.73 -2.731,-2.73 -1.508,0 -2.73,1.221 -2.73,2.73 0,1.508 1.222,2.73 2.73,2.73"
         style="fill:#e7e8cc;fill-opacity:1;fill-rule:evenodd;stroke:none"
         id="path4543"
         inkscape:connector-curvature="0" /><path
         d="m 628.182,467.825 c 1.507,0 2.73,-1.222 2.73,-2.73 0,-1.509 -1.223,-2.73 -2.73,-2.73 -1.509,0 -2.73,1.221 -2.73,2.73 0,1.508 1.221,2.73 2.73,2.73"
         style="fill:#e7e8cc;fill-opacity:1;fill-rule:evenodd;stroke:none"
         id="path4545"
         inkscape:connector-curvature="0" /><path
         d="m 647.556,448.33 -45.497,0 0.92,-2.453 44.577,0 0,2.453 z m -152.958,0 -45.497,0 0,-2.453 44.577,0 0.92,2.453 z m -45.497,4.094 44.577,0 0.92,-2.452 -45.497,0 0,2.452 z m 153.878,0 44.577,0 0,-2.452 -45.497,0 0.92,2.452"
         style="fill:#e7e8cc;fill-opacity:1;fill-rule:evenodd;stroke:none"
         id="path4547"
         inkscape:connector-curvature="0" /><text
         xml:space="preserve"
         style="font-style:normal;font-variant:normal;font-weight:bold;font-stretch:normal;font-size:28.18993568px;line-height:1.25;font-family:'Myanmar Text';-inkscape-font-specification:'Myanmar Text, Bold';font-variant-ligatures:normal;font-variant-caps:normal;font-variant-numeric:normal;font-feature-settings:normal;text-align:start;letter-spacing:0px;word-spacing:0px;writing-mode:lr-tb;text-anchor:start;fill:#e7e8cc;fill-opacity:1;stroke:none;stroke-width:0.68923658"
         x="768.8548"
         y="-260.57828"
         id="text5150"
         transform="scale(0.6466441,-1.5464457)"><tspan
           sodipodi:role="line"
           id="tspan5148"
           x="768.8548"
           y="-260.57828"
           style="font-style:normal;font-variant:normal;font-weight:bold;font-stretch:normal;font-size:28.18993568px;font-family:'Myanmar Text';-inkscape-font-specification:'Myanmar Text, Bold';font-variant-ligatures:normal;font-variant-caps:normal;font-variant-numeric:normal;font-feature-settings:normal;text-align:start;writing-mode:lr-tb;text-anchor:start;fill:#e7e8cc;fill-opacity:1;stroke-width:0.68923658">D'BURGUER</tspan></text>
<text
         xml:space="preserve"
         style="font-style:normal;font-variant:normal;font-weight:normal;font-stretch:normal;font-size:16.5387764px;line-height:1.25;font-family:Bahnschrift;-inkscape-font-specification:'Bahnschrift, Normal';font-variant-ligatures:normal;font-variant-caps:normal;font-variant-numeric:normal;font-feature-settings:normal;text-align:start;letter-spacing:0px;word-spacing:0px;writing-mode:lr-tb;text-anchor:start;fill:#000000;fill-opacity:1;stroke:none;stroke-width:0.41346943"
         x="619.08331"
         y="-352.93335"
         id="text5270"
         transform="scale(1,-1)"><tspan
           sodipodi:role="line"
           id="tspan5268"
           x="619.08331"
           y="-337.73511"
           style="stroke-width:0.41346943"></tspan></text>
<text
         xml:space="preserve"
         style="font-style:normal;font-variant:normal;font-weight:600;font-stretch:semi-condensed;font-size:16.5387764px;line-height:1.25;font-family:Bahnschrift;-inkscape-font-specification:'Bahnschrift, Semi-Bold Semi-Condensed';font-variant-ligatures:normal;font-variant-caps:normal;font-variant-numeric:normal;font-feature-settings:normal;text-align:start;letter-spacing:0px;word-spacing:0px;writing-mode:lr-tb;text-anchor:start;fill:#e7e8cc;fill-opacity:1;stroke:none;stroke-width:0.41346943"
         x="491.32126"
         y="-471.30676"
         id="text7665"
         transform="scale(1,-1)"><tspan
           sodipodi:role="line"
           id="tspan7663"
           x="491.32126"
           y="-471.30676"
           style="font-style:normal;font-variant:normal;font-weight:600;font-stretch:semi-condensed;font-size:16.5387764px;font-family:Bahnschrift;-inkscape-font-specification:'Bahnschrift, Semi-Bold Semi-Condensed';font-variant-ligatures:normal;font-variant-caps:normal;font-variant-numeric:normal;font-feature-settings:normal;text-align:start;writing-mode:lr-tb;text-anchor:start;fill:#e7e8cc;fill-opacity:1;stroke-width:0.41346943">B</tspan></text>
<text
         xml:space="preserve"
         style="font-style:normal;font-variant:normal;font-weight:600;font-stretch:semi-condensed;font-size:16.5387764px;line-height:1.25;font-family:Bahnschrift;-inkscape-font-specification:'Bahnschrift, Semi-Bold Semi-Condensed';font-variant-ligatures:normal;font-variant-caps:normal;font-variant-numeric:normal;font-feature-settings:normal;text-align:start;letter-spacing:0px;word-spacing:0px;writing-mode:lr-tb;text-anchor:start;fill:#e7e8cc;fill-opacity:1;stroke:none;stroke-width:0.41346943"
         x="506.80515"
         y="-476.14725"
         id="text7669"
         transform="scale(1,-1)"><tspan
           sodipodi:role="line"
           id="tspan7667"
           x="506.80515"
           y="-476.14725"
           style="font-style:normal;font-variant:normal;font-weight:600;font-stretch:semi-condensed;font-size:16.5387764px;font-family:Bahnschrift;-inkscape-font-specification:'Bahnschrift, Semi-Bold Semi-Condensed';font-variant-ligatures:normal;font-variant-caps:normal;font-variant-numeric:normal;font-feature-settings:normal;text-align:start;writing-mode:lr-tb;text-anchor:start;fill:#e7e8cc;fill-opacity:1;stroke-width:0.41346943">E</tspan></text>
<text
         xml:space="preserve"
         style="font-style:normal;font-variant:normal;font-weight:600;font-stretch:semi-condensed;font-size:16.5387764px;line-height:1.25;font-family:Bahnschrift;-inkscape-font-specification:'Bahnschrift, Semi-Bold Semi-Condensed';font-variant-ligatures:normal;font-variant-caps:normal;font-variant-numeric:normal;font-feature-settings:normal;text-align:start;letter-spacing:0px;word-spacing:0px;writing-mode:lr-tb;text-anchor:start;fill:#e7e8cc;fill-opacity:1;stroke:none;stroke-width:0.41346943"
         x="521.61877"
         y="-480.28195"
         id="text7673"
         transform="scale(1,-1)"><tspan
           sodipodi:role="line"
           id="tspan7671"
           x="521.61877"
           y="-480.28195"
           style="font-style:normal;font-variant:normal;font-weight:600;font-stretch:semi-condensed;font-size:16.5387764px;font-family:Bahnschrift;-inkscape-font-specification:'Bahnschrift, Semi-Bold Semi-Condensed';font-variant-ligatures:normal;font-variant-caps:normal;font-variant-numeric:normal;font-feature-settings:normal;text-align:start;writing-mode:lr-tb;text-anchor:start;fill:#e7e8cc;fill-opacity:1;stroke-width:0.41346943">M</tspan></text>
<text
         xml:space="preserve"
         style="font-style:normal;font-variant:normal;font-weight:600;font-stretch:semi-condensed;font-size:16.5387764px;line-height:1.25;font-family:Bahnschrift;-inkscape-font-specification:'Bahnschrift, Semi-Bold Semi-Condensed';font-variant-ligatures:normal;font-variant-caps:normal;font-variant-numeric:normal;font-feature-settings:normal;text-align:start;letter-spacing:0px;word-spacing:0px;writing-mode:lr-tb;text-anchor:start;fill:#e7e8cc;fill-opacity:1;stroke:none;stroke-width:0.41346943"
         x="540.08252"
         y="-481.93582"
         id="text7677"
         transform="scale(1,-1)"><tspan
           sodipodi:role="line"
           id="tspan7675"
           x="540.08252"
           y="-481.93582"
           style="font-style:normal;font-variant:normal;font-weight:600;font-stretch:semi-condensed;font-size:16.5387764px;font-family:Bahnschrift;-inkscape-font-specification:'Bahnschrift, Semi-Bold Semi-Condensed';font-variant-ligatures:normal;font-variant-caps:normal;font-variant-numeric:normal;font-feature-settings:normal;text-align:start;writing-mode:lr-tb;text-anchor:start;fill:#e7e8cc;fill-opacity:1;stroke-width:0.41346943">V</tspan></text>
<text
         xml:space="preserve"
         style="font-style:normal;font-variant:normal;font-weight:600;font-stretch:semi-condensed;font-size:16.5387764px;line-height:1.25;font-family:Bahnschrift;-inkscape-font-specification:'Bahnschrift, Semi-Bold Semi-Condensed';font-variant-ligatures:normal;font-variant-caps:normal;font-variant-numeric:normal;font-feature-settings:normal;text-align:start;letter-spacing:0px;word-spacing:0px;writing-mode:lr-tb;text-anchor:start;fill:#e7e8cc;fill-opacity:1;stroke:none;stroke-width:0.41346943"
         x="555.3645"
         y="-481.93582"
         id="text7681"
         transform="scale(1,-1)"><tspan
           sodipodi:role="line"
           id="tspan7679"
           x="555.3645"
           y="-481.93582"
           style="font-style:normal;font-variant:normal;font-weight:600;font-stretch:semi-condensed;font-size:16.5387764px;font-family:Bahnschrift;-inkscape-font-specification:'Bahnschrift, Semi-Bold Semi-Condensed';font-variant-ligatures:normal;font-variant-caps:normal;font-variant-numeric:normal;font-feature-settings:normal;text-align:start;writing-mode:lr-tb;text-anchor:start;fill:#e7e8cc;fill-opacity:1;stroke-width:0.41346943">I</tspan></text>
<text
         xml:space="preserve"
         style="font-style:normal;font-variant:normal;font-weight:600;font-stretch:semi-condensed;font-size:16.5387764px;line-height:1.25;font-family:Bahnschrift;-inkscape-font-specification:'Bahnschrift, Semi-Bold Semi-Condensed';font-variant-ligatures:normal;font-variant-caps:normal;font-variant-numeric:normal;font-feature-settings:normal;text-align:start;letter-spacing:0px;word-spacing:0px;writing-mode:lr-tb;text-anchor:start;fill:#e7e8cc;fill-opacity:1;stroke:none;stroke-width:0.41346943"
         x="564.28296"
         y="-480.28195"
         id="text7685"
         transform="scale(1,-1)"><tspan
           sodipodi:role="line"
           id="tspan7683"
           x="564.28296"
           y="-480.28195"
           style="font-style:normal;font-variant:normal;font-weight:600;font-stretch:semi-condensed;font-size:16.5387764px;font-family:Bahnschrift;-inkscape-font-specification:'Bahnschrift, Semi-Bold Semi-Condensed';font-variant-ligatures:normal;font-variant-caps:normal;font-variant-numeric:normal;font-feature-settings:normal;text-align:start;writing-mode:lr-tb;text-anchor:start;fill:#e7e8cc;fill-opacity:1;stroke-width:0.41346943">N</tspan></text>
<text
         xml:space="preserve"
         style="font-style:normal;font-variant:normal;font-weight:600;font-stretch:semi-condensed;font-size:16.5387764px;line-height:1.25;font-family:Bahnschrift;-inkscape-font-specification:'Bahnschrift, Semi-Bold Semi-Condensed';font-variant-ligatures:normal;font-variant-caps:normal;font-variant-numeric:normal;font-feature-settings:normal;text-align:start;letter-spacing:0px;word-spacing:0px;writing-mode:lr-tb;text-anchor:start;fill:#e7e8cc;fill-opacity:1;stroke:none;stroke-width:0.41346943"
         x="580.22711"
         y="-476.14725"
         id="text7689"
         transform="scale(1,-1)"><tspan
           sodipodi:role="line"
           id="tspan7687"
           x="580.22711"
           y="-476.14725"
           style="font-style:normal;font-variant:normal;font-weight:600;font-stretch:semi-condensed;font-size:16.5387764px;font-family:Bahnschrift;-inkscape-font-specification:'Bahnschrift, Semi-Bold Semi-Condensed';font-variant-ligatures:normal;font-variant-caps:normal;font-variant-numeric:normal;font-feature-settings:normal;text-align:start;writing-mode:lr-tb;text-anchor:start;fill:#e7e8cc;fill-opacity:1;stroke-width:0.41346943">D</tspan></text>
<text
         xml:space="preserve"
         style="font-style:normal;font-variant:normal;font-weight:600;font-stretch:semi-condensed;font-size:16.5387764px;line-height:1.25;font-family:Bahnschrift;-inkscape-font-specification:'Bahnschrift, Semi-Bold Semi-Condensed';font-variant-ligatures:normal;font-variant-caps:normal;font-variant-numeric:normal;font-feature-settings:normal;text-align:start;letter-spacing:0px;word-spacing:0px;writing-mode:lr-tb;text-anchor:start;fill:#e7e8cc;fill-opacity:1;stroke:none;stroke-width:0.41346943"
         x="595.92902"
         y="-471.18564"
         id="text7693"
         transform="scale(1,-1)"><tspan
           sodipodi:role="line"
           id="tspan7691"
           x="595.92902"
           y="-471.18564"
           style="font-style:normal;font-variant:normal;font-weight:600;font-stretch:semi-condensed;font-size:16.5387764px;font-family:Bahnschrift;-inkscape-font-specification:'Bahnschrift, Semi-Bold Semi-Condensed';font-variant-ligatures:normal;font-variant-caps:normal;font-variant-numeric:normal;font-feature-settings:normal;text-align:start;writing-mode:lr-tb;text-anchor:start;fill:#e7e8cc;fill-opacity:1;stroke-width:0.41346943">O</tspan></text>
<text
         xml:space="preserve"
         style="font-style:normal;font-variant:normal;font-weight:normal;font-stretch:normal;font-size:19.03000641px;line-height:1.25;font-family:Gadugi;-inkscape-font-specification:'Gadugi, Normal';font-variant-ligatures:normal;font-variant-caps:normal;font-variant-numeric:normal;font-feature-settings:normal;text-align:start;letter-spacing:0px;word-spacing:0px;writing-mode:lr-tb;text-anchor:start;fill:#e7e8cc;fill-opacity:1;stroke:none;stroke-width:0.47575021"
         x="540.42627"
         y="-357.68933"
         id="text7697"
         transform="scale(0.93351602,-1.0712189)"><tspan
           sodipodi:role="line"
           id="tspan7695"
           x="540.42627"
           y="-357.68933"
           style="font-style:normal;font-variant:normal;font-weight:normal;font-stretch:normal;font-size:19.03000641px;font-family:Gadugi;-inkscape-font-specification:'Gadugi, Normal';font-variant-ligatures:normal;font-variant-caps:normal;font-variant-numeric:normal;font-feature-settings:normal;text-align:start;writing-mode:lr-tb;text-anchor:start;fill:#e7e8cc;fill-opacity:1;stroke-width:0.47575021">desde 2020</tspan><tspan
           sodipodi:role="line"
           x="540.42627"
           y="-333.90182"
           style="font-style:normal;font-variant:normal;font-weight:normal;font-stretch:normal;font-size:19.03000641px;font-family:Gadugi;-inkscape-font-specification:'Gadugi, Normal';font-variant-ligatures:normal;font-variant-caps:normal;font-variant-numeric:normal;font-feature-settings:normal;text-align:start;writing-mode:lr-tb;text-anchor:start;fill:#e7e8cc;fill-opacity:1;stroke-width:0.47575021"
           id="tspan7699" /></text>
</g></g></svg>